<svg width="21" height="14" viewBox="0 0 21 14" fill="none" xmlns="http://www.w3.org/2000/svg">
<path d="M17.3024 2.71867L10.4998 8.59151L3.6973 2.71867C3.42579 2.48646 3.01606 2.51065 2.77417 2.77672C2.53721 3.04279 2.5619 3.44915 2.83341 3.68135L10.0704 9.92668C10.1938 10.0331 10.3468 10.0863 10.4998 10.0863C10.6529 10.0863 10.8108 10.0331 10.9343 9.92668L18.1663 3.68135C18.4378 3.44915 18.4625 3.04279 18.2255 2.77672C17.9836 2.51065 17.5689 2.48646 17.3024 2.71867Z" fill="#FF6612"/>
<path d="M19.0402 0H1.9598C0.878702 0 0 0.861092 0 1.92053V12.0795C0 13.1389 0.878702 14 1.9598 14H19.0402C20.1213 14 21 13.1389 21 12.0795V1.92053C21 0.861092 20.1213 0 19.0402 0ZM19.6918 12.0795C19.6918 12.4326 19.4006 12.718 19.0402 12.718H1.9598C1.59944 12.718 1.30818 12.4326 1.30818 12.0795V1.92053C1.30818 1.56738 1.59944 1.28196 1.9598 1.28196H19.0402C19.4006 1.28196 19.6918 1.56738 19.6918 1.92053V12.0795Z" fill="#62637C"/>
</svg>
