<svg width="35" height="35" viewBox="0 0 35 35" fill="none" xmlns="http://www.w3.org/2000/svg">
<path d="M0.00134277 17.5793C0.00134277 16.9571 0.00134277 16.3349 0.00134277 15.7127C0.433787 15.4264 0.866232 15.1402 1.38734 14.7949C1.38734 12.4864 1.3889 10.0551 1.38268 7.62222C1.38268 7.476 1.3189 7.32978 1.27845 7.18511C1.13068 6.65933 0.931565 6.14133 0.849121 5.60622C0.786898 5.20956 0.944009 4.78022 0.881787 4.38356C0.727787 3.38489 1.08245 2.62422 1.80579 1.97089C2.51512 1.32844 3.19645 0.658 3.89023 0C4.04579 0 4.20134 0 4.3569 0C5.04445 0.662667 5.78179 1.28333 6.4009 2.00511C6.80379 2.47489 7.31245 3.10644 7.28445 3.64C7.21912 4.858 7.8149 6.17867 6.88468 7.31111C6.7929 7.42311 6.84734 7.66267 6.84734 7.84311C6.84579 9.968 6.84423 12.0929 6.84734 14.2178C6.84734 14.49 6.87223 14.7607 6.88312 15.0002C7.74645 15.0002 8.51023 15.0002 9.28334 15.0002C9.28334 14.2738 9.28334 13.608 9.28334 12.9531C7.99068 12.5487 7.94245 12.4149 7.92223 10.9044C7.90356 9.48267 8.96757 9.63356 9.91957 9.53556C9.00179 6.846 10.2213 5.13644 12.3027 3.71311C14.0091 2.55111 15.6176 1.24444 17.268 0C17.4236 0 17.5791 0 17.7347 0C17.7642 0.0404444 17.7876 0.0933333 17.8265 0.121333C19.6371 1.45756 21.4525 2.79067 23.2616 4.12844C24.7316 5.21578 25.6369 6.57844 25.3429 8.50267C25.2931 8.82778 25.1889 9.14356 25.1111 9.46245C27.0742 9.96333 27.0742 9.96333 27.0742 11.4458C27.0742 12.3962 26.8565 12.6404 25.7349 12.9251C25.7349 13.608 25.7349 14.294 25.7349 15.0173C26.5469 15.0173 27.3091 15.0173 28.0713 15.0173C28.1056 14.9022 28.1445 14.8307 28.1445 14.7591C28.1507 12.376 28.1538 9.99133 28.1507 7.60822C28.1507 7.46044 28.0947 7.30956 28.0589 7.16333C27.9251 6.63133 27.7447 6.10711 27.6638 5.56733C27.6047 5.16756 27.7182 4.74444 27.6716 4.34C27.5596 3.35222 27.9002 2.58378 28.636 1.932C29.3298 1.316 29.9785 0.645556 30.6458 0C30.8013 0 30.9569 0 31.1125 0C31.7876 0.642444 32.4471 1.30044 33.1393 1.92267C33.9965 2.69111 34.544 5.82244 34.0276 6.83822C33.8098 7.26911 33.6573 7.77311 33.6325 8.25222C33.5749 9.36444 33.6138 10.4798 33.6138 11.5951C33.6138 12.7307 33.6138 13.8647 33.6138 14.7638C34.1925 15.1604 34.5969 15.4358 34.9998 15.7127C34.9998 16.3349 34.9998 16.9571 34.9998 17.5793C34.6669 17.8811 34.334 18.1844 33.9109 18.5687C33.9109 18.5531 33.9047 18.6807 33.9125 18.8098C33.9545 19.5471 33.8953 20.2191 33.0305 20.5007C32.9247 20.5349 32.8282 20.7807 32.8282 20.9284C32.8158 23.7751 32.8189 26.6218 32.8189 29.5027C34.1271 29.7562 33.8953 30.7813 33.9156 31.4611C34.3573 31.8904 34.6793 32.2031 34.9998 32.5142C34.9998 33.3418 34.9998 34.1709 34.9998 35C23.3347 35 11.668 35 0.00134277 35C0.00134277 34.118 0.00134277 33.2376 0.00134277 32.3587C0.340454 32.1036 0.679565 31.85 1.08556 31.5451C1.07934 30.7378 0.920676 29.7484 2.16356 29.4933C2.16356 26.5051 2.16356 23.5604 2.16356 20.5427C0.897343 20.3264 1.09179 19.3169 1.08556 18.5593C0.665565 18.1813 0.334232 17.8796 0.00134277 17.5793ZM6.56734 29.5104C6.56734 28.2613 6.4989 27.0449 6.59379 25.8409C6.64668 25.1751 6.82245 24.4144 7.2129 23.9027C7.81179 23.114 8.62845 22.484 9.38757 21.826C9.54779 21.6876 9.89157 21.616 10.0907 21.6876C11.6665 22.2491 13.1131 24.4253 13.0976 26.1318C13.0882 27.2393 13.096 28.3484 13.096 29.4996C13.5067 29.4996 13.8287 29.4996 14.244 29.4996C14.244 28.2458 14.1771 27.0262 14.2705 25.8191C14.3233 25.1518 14.4929 24.3896 14.8833 23.8778C15.4838 23.0907 16.3051 22.4653 17.0689 21.812C17.226 21.6767 17.5745 21.6253 17.772 21.7C19.368 22.2989 20.7867 24.4533 20.768 26.1582C20.7556 27.2642 20.7649 28.3702 20.7649 29.498C21.1756 29.498 21.4976 29.498 21.9051 29.498C21.9051 28.2644 21.8367 27.0713 21.9316 25.8922C21.9876 25.1984 22.14 24.402 22.5429 23.8731C23.1573 23.0658 24.0145 22.4404 24.7922 21.7653C24.9182 21.6549 25.1936 21.6176 25.3616 21.6689C26.7958 22.1076 28.4353 24.3989 28.4353 25.9233C28.4353 27.1071 28.4353 28.2909 28.4353 29.484C28.8553 29.484 29.1727 29.484 29.5025 29.484C29.5025 26.4818 29.5025 23.5387 29.5025 20.5489C21.4882 20.5489 13.5207 20.5489 5.51112 20.5489C5.51112 23.5542 5.51112 26.516 5.51112 29.5073C5.8689 29.5104 6.16756 29.5104 6.56734 29.5104ZM17.4578 1.33778C16.9958 1.69244 16.5182 2.08444 16.0173 2.44222C14.7542 3.34444 13.4538 4.19844 12.2171 5.13333C10.7487 6.244 10.3178 7.61756 10.8902 8.98956C11.0676 9.41733 11.3087 9.61333 11.8142 9.61022C15.5927 9.58689 19.3727 9.58222 23.1511 9.61333C23.7469 9.618 23.9802 9.34889 24.1545 8.86978C24.6367 7.53356 24.2478 6.24711 22.8618 5.20022C21.1102 3.878 19.2918 2.64133 17.4578 1.33778ZM1.12757 33.8598C12.0833 33.8598 22.9753 33.8598 33.8767 33.8598C33.8767 33.5051 33.8767 33.2049 33.8767 32.8611C22.9489 32.8611 12.0553 32.8611 1.12757 32.8611C1.12757 33.2018 1.12757 33.502 1.12757 33.8598ZM33.8751 16.1824C22.9193 16.1824 12.0289 16.1824 1.12757 16.1824C1.12757 16.548 1.12757 16.8498 1.12757 17.1998C12.0569 17.1998 22.9489 17.1998 33.8751 17.1998C33.8751 16.8482 33.8751 16.5464 33.8751 16.1824ZM2.21645 19.3713C12.4536 19.3713 22.6191 19.3713 32.7816 19.3713C32.7816 19.0073 32.7816 18.7056 32.7816 18.3664C22.5787 18.3664 12.4147 18.3664 2.21645 18.3664C2.21645 18.7196 2.21645 19.0213 2.21645 19.3713ZM2.21645 31.6773C12.4473 31.6773 22.6129 31.6773 32.7831 31.6773C32.7831 31.3196 32.7831 31.0178 32.7831 30.6709C22.5818 30.6709 12.4162 30.6709 2.21645 30.6709C2.21645 31.0178 2.21645 31.3196 2.21645 31.6773ZM19.718 29.5198C19.718 28.4682 19.6356 27.4804 19.7367 26.5129C19.9078 24.8687 18.9387 23.9136 17.8093 23.0316C17.6849 22.9351 17.352 22.8962 17.2789 22.9771C16.6147 23.7176 15.6316 24.4082 15.4309 25.2747C15.1198 26.614 15.3485 28.0793 15.3485 29.5213C16.8013 29.5198 18.1951 29.5198 19.718 29.5198ZM27.3667 29.5011C27.3667 28.4107 27.2905 27.3949 27.3838 26.3947C27.5347 24.7753 26.5282 23.8793 25.4425 23.0067C25.3413 22.9258 25.1111 22.8604 25.0318 22.9164C24.1451 23.5558 23.1542 24.2216 23.0189 25.3649C22.8602 26.7104 22.9816 28.0887 22.9816 29.4996C24.4578 29.5011 25.8671 29.5011 27.3667 29.5011ZM7.66245 29.5027C9.13712 29.5027 10.5449 29.5027 12.0507 29.5027C12.0507 28.4791 11.9667 27.4944 12.0693 26.5284C12.242 24.8951 11.3227 23.9182 10.17 23.0487C10.0378 22.9491 9.73757 22.8869 9.6349 22.9647C8.79023 23.6102 7.82423 24.2698 7.69823 25.382C7.54579 26.7276 7.66245 28.1042 7.66245 29.5027ZM24.5791 12.8769C19.8145 12.8769 15.1447 12.8769 10.4391 12.8769C10.4391 13.6173 10.4391 14.3002 10.4391 14.9987C15.1773 14.9987 19.8658 14.9987 24.5791 14.9987C24.5791 14.2676 24.5791 13.6033 24.5791 12.8769ZM2.51668 7.39822C2.51668 9.96022 2.51668 12.4756 2.51668 15.0018C3.61645 15.0018 4.65868 15.0018 5.68534 15.0018C5.68534 12.4258 5.68534 9.91045 5.68534 7.39822C4.59179 7.39822 3.56823 7.39822 2.51668 7.39822ZM29.2925 7.39356C29.2925 9.98356 29.2925 12.4818 29.2925 15.0142C30.3782 15.0142 31.422 15.0142 32.4829 15.0142C32.4829 12.4491 32.4829 9.93378 32.4829 7.39356C31.3971 7.39356 30.3736 7.39356 29.2925 7.39356ZM9.0609 11.746C14.7013 11.746 20.306 11.746 25.9449 11.746C25.9449 11.3758 25.9449 11.0491 25.9449 10.6789C20.3091 10.6789 14.7029 10.6789 9.0609 10.6789C9.0609 11.0522 9.0609 11.3773 9.0609 11.746ZM3.33179 20.5458C3.33179 23.5838 3.33179 26.5456 3.33179 29.5073C3.69268 29.5073 3.9929 29.5073 4.33045 29.5073C4.33045 26.5036 4.33045 23.5418 4.33045 20.5458C3.98357 20.5458 3.68179 20.5458 3.33179 20.5458ZM30.6893 20.5442C30.6893 23.5884 30.6893 26.5487 30.6893 29.5058C31.0549 29.5058 31.3551 29.5058 31.6833 29.5058C31.6833 26.502 31.6833 23.5402 31.6833 20.5442C31.3365 20.5442 31.0362 20.5442 30.6893 20.5442ZM4.10645 1.28178C3.36601 2.29911 2.07645 2.66778 1.87734 4.06C3.37068 4.06 4.79712 4.06 6.31068 4.06C6.14734 2.65689 4.84534 2.29911 4.10645 1.28178ZM30.9025 1.30044C30.1465 2.296 28.8678 2.67556 28.6749 4.06311C30.19 4.06311 31.618 4.06311 33.1456 4.06311C32.9076 2.69111 31.6616 2.28511 30.9025 1.30044ZM6.2609 6.272C6.2609 6.00289 6.2609 5.75867 6.2609 5.51133C4.79401 5.51133 3.36445 5.51133 1.88979 5.51133C1.91001 5.79289 1.92712 6.01378 1.94579 6.272C3.40179 6.272 4.80801 6.272 6.2609 6.272ZM28.7791 5.49422C28.6453 5.91733 28.5536 6.30156 29.1805 6.30311C30.4218 6.30778 31.6631 6.29067 32.9045 6.27511C32.9667 6.27356 33.0273 6.19422 33.1067 6.13822C33.0958 5.936 33.0849 5.73378 33.0725 5.49267C31.632 5.49422 30.2196 5.49422 28.7791 5.49422Z" fill="#62637C"/>
<path d="M19.718 29.5198C18.1951 29.5198 16.7998 29.5198 15.3485 29.5198C15.3485 28.0778 15.1198 26.6124 15.4309 25.2731C15.6316 24.4082 16.6147 23.7176 17.2789 22.9756C17.352 22.8947 17.6865 22.9336 17.8094 23.03C18.9387 23.9136 19.9063 24.8671 19.7367 26.5113C19.6356 27.4804 19.718 28.4682 19.718 29.5198Z" fill="#FE5246"/>
<path d="M27.3667 29.5011C25.8671 29.5011 24.4578 29.5011 22.9831 29.5011C22.9831 28.0902 22.8618 26.712 23.0204 25.3664C23.1542 24.2216 24.1467 23.5573 25.0333 22.918C25.1111 22.862 25.3429 22.9258 25.444 23.0082C26.5298 23.8809 27.5362 24.7769 27.3853 26.3962C27.2904 27.3949 27.3667 28.4107 27.3667 29.5011Z" fill="#FE5246"/>
<path d="M7.66246 29.5027C7.66246 28.1042 7.54579 26.7276 7.69824 25.3836C7.82579 24.2713 8.79024 23.6118 9.63491 22.9662C9.73757 22.8884 10.0378 22.9507 10.17 23.0502C11.3227 23.9198 12.2405 24.8967 12.0694 26.53C11.9667 27.496 12.0507 28.4807 12.0507 29.5042C10.5449 29.5027 9.13713 29.5027 7.66246 29.5027Z" fill="#FE5246"/>
<path d="M31.4251 9.61489C31.4205 9.61489 31.4158 9.61489 31.4127 9.61489C31.4127 9.38467 31.4765 9.128 31.394 8.93355C31.3225 8.76244 31.0922 8.56022 30.9227 8.55244C30.7531 8.54311 30.4389 8.736 30.4187 8.876C30.3518 9.324 30.3471 9.79533 30.4109 10.2433C30.4327 10.3927 30.7578 10.626 30.9009 10.598C31.0969 10.5607 31.296 10.3367 31.4111 10.1438C31.4874 10.01 31.4251 9.79378 31.4251 9.61489ZM31.4205 12.8287C31.4251 12.8287 31.4282 12.8287 31.4329 12.8287C31.4329 12.7011 31.4796 12.544 31.4236 12.4507C31.2851 12.2189 31.1 12.0151 30.9336 11.7989C30.7391 12.0151 30.4545 12.2033 30.3751 12.4569C30.2802 12.7587 30.3036 13.132 30.3922 13.44C30.4467 13.6251 30.722 13.8631 30.8994 13.8631C31.072 13.8647 31.3022 13.6236 31.4034 13.4322C31.4874 13.2736 31.4205 13.034 31.4205 12.8287Z" fill="white"/>
<path d="M11.598 7.868C11.9185 7.30334 12.0818 6.77134 12.4349 6.44778C13.0774 5.85823 13.8162 5.36356 14.5551 4.89378C14.706 4.79734 15.0358 4.984 15.2831 5.04C15.2194 5.28734 15.2349 5.62645 15.0747 5.76334C14.5676 6.20045 13.964 6.52556 13.46 6.96734C13.1925 7.20223 12.942 7.56778 12.8876 7.90845C12.8222 8.31756 12.858 8.78423 12.3245 8.68C12.0585 8.62556 11.8687 8.18534 11.598 7.868Z" fill="#62637C"/>
<path d="M19.2218 13.3887C19.4442 13.4042 19.6869 13.3544 19.8425 13.4478C20.0105 13.5489 20.1769 13.776 20.194 13.9642C20.208 14.1104 20.0105 14.4013 19.8813 14.4169C19.4038 14.4744 18.9107 14.4838 18.4347 14.4216C18.2885 14.4029 18.0738 14.0918 18.0816 13.9253C18.0893 13.7542 18.304 13.5209 18.4829 13.4478C18.7053 13.3576 18.9838 13.4011 19.2218 13.3887Z" fill="#62637C"/>
<path d="M22.35 14.5196C22.084 14.4713 21.79 14.49 21.5971 14.3593C21.4524 14.2613 21.3529 13.8056 21.3778 13.7931C21.6951 13.6313 22.0404 13.4182 22.3764 13.4229C22.742 13.4276 23.106 13.6438 23.47 13.7667C23.3969 13.9704 23.3782 14.2847 23.2382 14.3547C22.9784 14.4853 22.6471 14.4729 22.35 14.5196Z" fill="#62637C"/>
<path d="M12.5189 14.4667C12.3384 14.4667 12.1191 14.532 11.9869 14.4511C11.794 14.3329 11.6633 14.112 11.5078 13.9347C11.7971 13.7558 12.074 13.4556 12.3773 13.4244C12.8393 13.3778 13.4864 13.1693 13.6373 13.9129C13.6669 14.0607 13.3993 14.3469 13.2049 14.4418C13.0182 14.5336 12.7507 14.462 12.5189 14.462C12.5189 14.4636 12.5189 14.4651 12.5189 14.4667Z" fill="#62637C"/>
<path d="M15.7996 14.4853C15.5927 14.4729 15.3516 14.5242 15.1898 14.4324C15.0156 14.3344 14.8336 14.1167 14.8087 13.93C14.79 13.7869 14.9954 13.4898 15.126 13.4742C15.6067 13.4167 16.1045 13.4089 16.5836 13.4711C16.7251 13.4898 16.9305 13.8164 16.9165 13.9844C16.9009 14.154 16.6738 14.3687 16.4918 14.4402C16.2896 14.5196 16.0329 14.4589 15.7996 14.4589C15.7996 14.4682 15.7996 14.476 15.7996 14.4853Z" fill="#62637C"/>
<path d="M3.60406 9.1124C3.60406 8.93195 3.53872 8.71106 3.61961 8.58195C3.75183 8.37351 3.96183 8.13084 4.17339 8.09039C4.30872 8.06551 4.5965 8.35484 4.65561 8.55084C4.74117 8.83395 4.7505 9.18239 4.66183 9.46395C4.57939 9.73151 4.3305 9.94617 4.15472 10.1857C3.96961 9.95706 3.76739 9.73928 3.61028 9.49351C3.55428 9.40173 3.60406 9.24151 3.60406 9.1124Z" fill="#62637C"/>
<path d="M3.57913 5.91742C3.68647 5.57364 3.71291 5.24075 3.88869 5.0292C3.97891 4.92031 4.5358 5.01364 4.53891 5.0432C4.58713 5.63275 4.59802 6.22697 4.56224 6.81653C4.56069 6.85542 3.97735 6.96431 3.92135 6.87564C3.73935 6.59409 3.68024 6.23631 3.57913 5.91742Z" fill="#62637C"/>
<path d="M31.4251 9.61489C31.4251 9.79378 31.4889 10.01 31.4096 10.1422C31.2945 10.3351 31.0954 10.5591 30.8994 10.5964C30.7547 10.6229 30.4296 10.3911 30.4094 10.2418C30.3456 9.79378 30.3487 9.32245 30.4171 8.87445C30.4374 8.736 30.7516 8.54156 30.9211 8.55089C31.0907 8.56022 31.3209 8.76089 31.3925 8.932C31.4749 9.128 31.4111 9.38311 31.4111 9.61334C31.4158 9.61489 31.4205 9.61489 31.4251 9.61489Z" fill="#62637C"/>
<path d="M31.4205 12.8287C31.4205 13.034 31.4874 13.2736 31.4034 13.4338C31.3038 13.6236 31.072 13.8647 30.8994 13.8647C30.722 13.8631 30.4451 13.6267 30.3922 13.4416C30.3036 13.1336 30.2802 12.7587 30.3751 12.4584C30.4545 12.2064 30.7391 12.0182 30.9336 11.8004C31.1 12.0151 31.2867 12.2189 31.4236 12.4522C31.4796 12.5471 31.4329 12.7027 31.4329 12.8302C31.4282 12.8287 31.4251 12.8287 31.4205 12.8287Z" fill="#62637C"/>
</svg>
