<svg width="20" height="24" viewBox="0 0 20 24" fill="none" xmlns="http://www.w3.org/2000/svg">
<g clip-path="url(#clip0)">
<path d="M16.8248 3.03985C15.1308 1.08198 12.8869 0 10.501 0C10.1108 0 9.7915 0.370965 9.7915 0.824366C9.7915 1.27777 10.1108 1.64873 10.501 1.64873C12.5143 1.64873 14.4035 2.55554 15.8226 4.21457C17.2416 5.8633 18.031 8.06848 18.031 10.3973C18.031 10.8507 18.3503 11.2217 18.7405 11.2217C19.1308 11.2217 19.4501 10.8507 19.4501 10.3973C19.4412 7.61508 18.5188 5.00802 16.8248 3.03985Z" fill="#FF6612"/>
<path d="M13.9068 10.3972C13.9068 10.8506 14.2261 11.2216 14.6163 11.2216C15.0066 11.2216 15.3259 10.8506 15.3259 10.3972C15.3259 7.30582 13.1618 4.7915 10.501 4.7915C10.1108 4.7915 9.7915 5.16247 9.7915 5.61587C9.7915 6.06927 10.1108 6.44024 10.501 6.44024C12.3813 6.42993 13.9068 8.21262 13.9068 10.3972Z" fill="#FF6612"/>
<path d="M12.3371 14.5912C11.2551 14.5293 10.7052 15.4567 10.4391 15.9101C10.2174 16.2811 10.2972 16.7963 10.6254 17.054C10.9536 17.3116 11.3881 17.2188 11.6099 16.8376C11.9203 16.312 12.0622 16.2193 12.2573 16.2399C12.8693 16.3223 15.2906 18.3832 15.5301 19.0221C15.5921 19.2076 15.5921 19.3931 15.5212 19.6198C15.264 20.4957 14.8471 21.114 14.3061 21.4025C13.7917 21.6807 13.162 21.6498 12.4879 21.3304C9.9602 20.135 7.7429 18.4554 5.91585 16.3635C4.1154 14.2408 2.67859 11.675 1.64089 8.73816C1.36595 7.94471 1.34821 7.21308 1.57881 6.61542C1.82715 5.98684 2.3593 5.50252 3.10431 5.20369C3.29943 5.13156 3.45908 5.12125 3.61872 5.19339C4.17748 5.47161 5.94245 8.28476 6.01341 8.98547C6.03115 9.22248 5.96019 9.38735 5.50786 9.74801C5.1797 10.0056 5.09988 10.5105 5.32161 10.8918C5.54334 11.2628 5.9868 11.3658 6.30609 11.1082C6.69634 10.7991 7.49457 10.1602 7.44135 8.90303C7.37927 7.58405 5.1797 4.1011 4.12427 3.6477C3.6542 3.45191 3.1664 3.44161 2.66085 3.6374C1.52559 4.08049 0.709627 4.87394 0.292775 5.92501C-0.106339 6.94516 -0.0974697 8.13019 0.328252 9.34613C1.42803 12.489 2.97127 15.2403 4.91363 17.5177C4.9225 17.528 4.9225 17.528 4.93137 17.5383C6.89146 19.7847 9.25953 21.5777 11.9558 22.8554C12.4968 23.113 13.0289 23.2367 13.5345 23.2367C14.0134 23.2367 14.4746 23.1233 14.9003 22.8966C15.805 22.4123 16.4879 21.4643 16.8693 20.1453C17.0378 19.558 17.0378 18.9912 16.8604 18.4451C16.4702 17.2291 13.4724 14.6633 12.3371 14.5912Z" fill="#62637C"/>
</g>
<defs>
<clipPath id="clip0">
<rect width="19.4413" height="23.2368" fill="white"/>
</clipPath>
</defs>
</svg>
