<svg width="32" height="29" viewBox="0 0 32 29" fill="none" xmlns="http://www.w3.org/2000/svg">
<g clip-path="url(#clip0)">
<path d="M2.03259 14.0769C1.60564 14.346 1.18001 14.6138 0.652219 14.9452C1.26775 12.2804 3.02792 10.584 5.03562 9.10597C4.41484 8.35332 3.78359 7.64096 3.21259 6.8831C2.5093 5.94846 2.22118 4.94752 2.4949 3.72819C2.75814 2.56086 2.75421 1.33633 2.87208 0.0793021C3.62774 0.0442041 4.26162 0.45108 4.81691 0.891755C5.84891 1.71201 6.83377 2.59725 7.78327 3.5111C8.11985 3.83478 8.34772 3.88028 8.77336 3.71649C10.9408 2.88454 13.1594 2.86634 15.4264 3.29141C16.0904 3.41621 16.8212 3.26282 17.51 3.15882C19.4811 2.85984 21.4049 2.99633 23.2607 3.72689C23.7047 3.90108 23.9116 3.78928 24.2456 3.4955C25.4439 2.44126 26.6802 1.42732 27.9401 0.44848C28.2583 0.201495 28.722 0.136499 29.0874 -0.00129318C29.2851 1.61711 29.585 3.13022 29.6073 4.64593C29.6191 5.37779 29.2144 6.17984 28.811 6.83631C28.3186 7.63836 27.6284 8.32082 26.9867 9.10077C28.9682 10.5723 30.7427 12.2609 31.3544 14.9231C30.8384 14.6047 30.4062 14.3382 29.9727 14.0704C31.6674 16.2543 32.3785 18.3419 31.7957 19.5548C31.3622 18.9724 30.9156 18.3718 30.469 17.7726C30.3944 17.8038 30.3197 17.835 30.2438 17.8675C31.2391 20.2008 30.8253 22.386 29.6034 24.4737C28.8569 25.7489 28.0187 26.9474 26.5414 27.6611C26.4301 27.3023 26.3436 26.9825 26.2323 26.6731C25.8041 25.4785 25.2448 24.4178 23.8134 24.15C22.9359 23.9862 22.2903 24.306 21.8568 25.0755C21.4665 25.7684 21.0369 26.4613 20.4987 27.041C20.1437 27.4232 19.5871 27.6455 19.0869 27.8665C18.1989 28.2577 17.2926 28.6087 16.3798 28.9389C16.1572 29.0195 15.8573 29.0195 15.6333 28.9415C14.7794 28.6451 13.9609 28.2305 13.0926 27.9939C12.1221 27.73 11.4712 27.132 10.929 26.3573C10.6815 26.0037 10.3711 25.6553 10.2533 25.2575C9.99658 24.3944 9.35616 24.1097 8.5887 24.1188C7.7885 24.1279 7.00926 24.3983 6.58101 25.1288C6.12918 25.8997 5.78605 26.7342 5.36172 27.6091C3.62513 26.7251 2.67432 25.108 1.87019 23.3791C1.03333 21.5787 0.967844 19.7393 1.76673 17.8753C1.69208 17.8415 1.61612 17.809 1.54147 17.7752C1.10536 18.3601 0.669244 18.9438 0.244917 19.5145C-0.425624 18.6942 0.297303 16.4934 2.03259 14.0769ZM25.1505 7.22368C24.2102 5.31019 22.5273 4.86172 20.7842 4.61474C19.0554 4.37035 17.2822 4.15196 16.1375 5.66117C15.4041 5.2725 14.7925 4.70313 14.1285 4.63683C11.3665 4.35865 8.66859 4.46524 6.84948 7.06899C6.16847 5.01511 5.807 2.78834 3.73645 1.35713C3.05412 2.93913 2.85898 4.39375 3.82157 5.81197C4.4633 6.75831 5.14825 7.67606 5.81617 8.6094C5.81617 7.88925 5.81617 7.13659 5.81617 6.48403C6.71328 7.37057 6.83639 8.49761 5.93142 9.51935C5.42197 10.0952 4.74619 10.5268 4.14768 11.0247C3.49285 11.5706 2.86946 12.1413 2.59967 13.0174C3.10519 12.9316 3.53345 12.8576 4.12803 12.7562C2.87208 14.1445 1.57421 15.2923 1.16429 17.1291C2.10724 16.8197 2.87731 16.3504 3.84122 16.4895C1.61743 19.8771 2.11641 24.3229 4.88894 25.8295C5.96547 23.6508 7.64051 22.5992 10.1485 23.2881C10.104 21.9739 10.2559 20.7676 11.1648 19.7978C11.0718 20.9847 10.9448 22.1546 10.9015 23.3258C10.8675 24.2566 11.2944 24.8818 12.1693 25.1353C13.0939 25.4044 14.0722 25.5318 14.8803 24.8286C15.281 24.4802 15.5678 24.0031 15.9817 23.4922C15.4487 23.0828 14.9837 22.6148 14.4258 22.3223C13.5955 21.8868 13.441 21.2356 13.5824 20.427C13.6806 19.8706 13.8208 19.3221 13.9412 18.7709C14.1167 19.4469 14.1875 20.1098 14.2975 20.765C14.3891 21.3162 15.6412 22.4614 16.0563 22.4094C16.5344 22.3496 17.6358 21.2655 17.7209 20.7364C17.827 20.0786 17.9016 19.4157 17.9907 18.7553C18.2317 19.4404 18.3888 20.1293 18.4648 20.8274C18.5289 21.415 18.3417 21.8842 17.7497 22.2157C17.142 22.5563 16.6156 23.0425 16.0864 23.4402C16.8172 24.7623 17.7091 25.5149 19.2322 25.2991C20.3664 25.1379 21.1456 24.4581 21.1155 23.3141C21.0841 22.1455 20.9505 20.9795 20.8588 19.7796C21.7481 20.7819 21.938 21.9804 21.8633 23.2868C24.3962 22.6018 26.0673 23.6612 27.1661 25.8919C28.4116 24.9806 29.014 23.76 29.4187 22.4198C30.0748 20.245 29.4174 18.3185 28.1876 16.5051C28.223 16.4492 28.2597 16.3933 28.295 16.3375C29.124 16.5714 29.953 16.8054 30.8606 17.0615C30.4219 15.291 29.1489 14.1315 27.8903 12.7523C28.5072 12.8537 28.9498 12.9264 29.4763 13.0122C29.3152 12.7224 29.238 12.452 29.0612 12.2843C28.2479 11.5121 27.4451 10.7218 26.5676 10.025C25.2828 9.00588 25.1414 7.47587 26.2048 6.49183C26.2048 7.13919 26.2048 7.88405 26.2048 8.7147C26.5073 8.21943 26.7247 7.82425 26.9788 7.45637C27.4202 6.81681 27.9205 6.21624 28.3317 5.55978C29.086 4.35735 29.0219 2.45946 28.2164 1.44812C28.0396 1.55732 27.8393 1.64831 27.6821 1.7861C27.4726 1.97069 27.2748 2.17738 27.1098 2.40227C26.0883 3.81008 25.6246 5.44929 25.1505 7.22368ZM19.1602 26.9422C19.2139 26.8304 19.2689 26.7199 19.3226 26.6081C19.0908 26.4574 18.8773 26.2611 18.6246 26.1636C17.7418 25.8243 16.846 25.5188 15.9555 25.2003C15.044 25.9543 13.5235 25.6228 12.7626 26.9123C13.8011 27.3127 14.7231 27.6767 15.653 28.0199C15.8245 28.0836 16.0498 28.1317 16.2082 28.0745C17.1983 27.7157 18.178 27.3231 19.1602 26.9422Z" fill="#62637C"/>
<path d="M19.1602 26.9422C18.178 27.3231 17.1984 27.7144 16.2083 28.0745C16.0498 28.1317 15.8245 28.0836 15.653 28.0199C14.7231 27.6767 13.8011 27.3127 12.7626 26.9123C13.5235 25.6228 15.0453 25.9543 15.9555 25.2003C16.8461 25.5188 17.7419 25.8243 18.6246 26.1636C18.8773 26.2611 19.0908 26.4574 19.3226 26.6081C19.2676 26.7199 19.2139 26.8317 19.1602 26.9422Z" fill="white"/>
<path d="M19.9473 17.6491C18.6822 16.3244 17.1119 12.621 17.2612 11.2911C17.9396 11.9047 18.5499 11.7409 19.244 11.2846C20.3887 10.532 21.6394 10.1654 23.0643 10.4137C23.427 10.4774 23.8776 10.0419 24.2272 9.86643C24.0675 10.5697 23.7008 11.3145 22.7722 11.7578C22.7264 11.013 22.2706 10.8908 21.7062 11.0988C20.8182 11.4263 19.9329 11.7721 19.0803 12.1803C18.4661 12.4741 18.3207 13.046 18.5355 13.6674C18.9624 14.9036 19.4208 16.1282 19.8648 17.3592C19.8923 17.4333 19.9093 17.5126 19.9473 17.6491Z" fill="#62637C"/>
<path d="M12.1392 17.5932C12.5805 16.3011 13.0441 15.0154 13.454 13.7129C13.7199 12.8667 13.6047 12.5248 12.8136 12.1283C11.9912 11.7149 11.1137 11.4042 10.2441 11.0936C9.70452 10.8999 9.29722 11.0442 9.28019 11.7578C8.33201 11.3535 7.97709 10.5918 7.78719 9.68444C8.17223 10.402 8.7249 10.4761 9.49105 10.3747C10.6357 10.2226 11.7201 10.5814 12.6814 11.2365C13.3611 11.7006 14.0408 12.0451 14.8789 11.1521C14.6092 13.7337 13.3571 15.6654 12.1392 17.5932Z" fill="#62637C"/>
<path d="M22.7591 7.87885C22.1305 7.56297 21.5228 7.18989 20.868 6.9429C19.3802 6.38003 17.8911 6.57372 16.4165 7.05989C16.2082 7.12879 15.9398 7.18859 15.7486 7.11839C13.5038 6.29164 11.3835 6.40993 9.41378 7.86065C9.37056 7.89185 9.31032 7.89965 9.08506 7.97894C9.99658 6.9299 10.9841 6.25394 12.1732 6.07975C13.2236 5.92506 14.3158 6.05765 15.3884 6.03035C16.131 6.01085 16.8722 5.93676 17.6148 5.88606C19.65 5.74957 21.4154 6.30724 22.7591 7.87885Z" fill="#62637C"/>
<path d="M16.0707 11.2248C16.2213 12.4104 16.3746 13.5972 16.5199 14.7827C16.6431 15.7863 16.7387 16.7937 16.8762 17.7947C16.9731 18.4992 16.7648 19.1648 16.2528 19.4339C16.1166 19.5054 15.8429 19.4976 15.7315 19.4053C15.2352 18.9971 15.0387 18.4875 15.1317 17.8077C15.4185 15.7187 15.6438 13.6219 15.8939 11.529C15.9057 11.4263 15.9241 11.3249 15.9398 11.2235C15.983 11.2248 16.0275 11.2248 16.0707 11.2248Z" fill="#62637C"/>
<path d="M21.6119 9.15147C19.7757 8.44431 18.0234 8.40662 16.2646 9.07348C16.1323 9.12288 15.9516 9.15667 15.8311 9.10858C14.0368 8.38712 12.2466 8.45081 10.3423 9.17097C11.0443 8.36502 11.8681 7.98284 12.7508 7.90095C13.7278 7.80995 14.7257 7.95684 15.7145 7.95164C16.2724 7.94904 16.8329 7.87495 17.3843 7.78655C18.5368 7.59936 20.9282 8.07514 21.6119 9.15147Z" fill="#62637C"/>
<path d="M19.3252 14.9283C19.4077 14.6424 19.4706 14.3499 19.574 14.073C19.9682 13.0084 20.648 12.5976 21.7756 12.7133C22.1423 12.751 22.5129 12.7952 22.8796 12.7822C23.2188 12.7705 23.5567 12.6873 23.8867 12.6353C22.7958 14.7178 21.4835 15.3313 19.3252 14.9283Z" fill="#FE5246"/>
<path d="M8.17746 12.7458C8.75632 12.7458 9.41115 12.8368 10.0319 12.7276C11.3547 12.4936 12.0907 12.9043 12.5897 14.5488C12.6263 14.6696 12.6499 14.7931 12.68 14.9166C10.6383 15.3144 9.30114 14.8126 8.17746 12.7458Z" fill="#FE5246"/>
<path d="M26.4484 17.2643C27.0941 15.1038 26.7077 13.2423 25.677 11.4471C27.6887 12.5885 28.0724 15.1545 26.4484 17.2643Z" fill="#62637C"/>
<path d="M5.48876 17.1044C4.01016 15.1168 4.21709 12.8498 6.39242 11.3366C5.32636 13.2176 4.92168 15.0908 5.48876 17.1044Z" fill="#62637C"/>
<path d="M8.28093 21.7555C6.44218 21.0003 5.21766 19.6783 4.69642 17.7128C5.25957 18.416 5.81879 19.1219 6.38718 19.8212C6.95819 20.5258 7.53705 21.2252 8.11199 21.9271C8.1683 21.8686 8.22462 21.8114 8.28093 21.7555Z" fill="#62637C"/>
<path d="M27.4424 17.6933C26.7955 19.6666 25.588 21.0081 23.799 21.7256C24.9724 20.4283 26.1852 19.0855 27.4424 17.6933Z" fill="#62637C"/>
<path d="M25.3706 14.3967C25.4871 16.8873 23.9954 18.3081 22.12 17.6764C24.0203 17.3982 24.8244 16.1009 25.3706 14.3967Z" fill="#62637C"/>
<path d="M9.90097 17.6738C8.02424 18.3159 6.53124 16.873 6.6478 14.4149C7.20571 16.0814 7.97971 17.3969 9.90097 17.6738Z" fill="#62637C"/>
<path d="M7.09439 8.5262C7.04724 6.835 8.36737 5.67027 10.5453 5.55978C8.99993 6.23444 7.77672 7.07159 7.09439 8.5262Z" fill="#62637C"/>
<path d="M24.9462 8.6887C24.2403 7.08199 23.0485 6.24094 21.5883 5.61698C23.5095 5.56758 25.0824 6.9078 24.9462 8.6887Z" fill="#62637C"/>
<path d="M9.55915 22.1351C8.55596 20.7455 8.82967 19.5314 10.3476 18.65C9.66261 19.7705 9.34436 20.9002 9.55915 22.1351Z" fill="#62637C"/>
<path d="M21.6407 18.6006C23.2109 19.5925 23.4716 20.8118 22.3963 22.2742C22.6635 20.8937 22.361 19.7562 21.6407 18.6006Z" fill="#62637C"/>
</g>
<defs>
<clipPath id="clip0">
<rect width="32" height="29" fill="white"/>
</clipPath>
</defs>
</svg>
